<svg xmlns="http://www.w3.org/2000/svg" width="13.505" height="13.504" viewBox="0 0 13.505 13.504">
  <g id="Page-1" transform="translate(0.003)">
    <g id="_003---Call" data-name="003---Call" transform="translate(-0.003)">
      <path id="Shape" d="M6.589,7.958A5.45,5.45,0,0,1,4.944,4.863a.463.463,0,0,1,.133-.387L6.12,3.433a.466.466,0,0,0,.066-.576L4.525.278a.466.466,0,0,0-.6-.17L1.255,1.364A.463.463,0,0,0,1,1.827a12.887,12.887,0,0,0,3.924,7.8,12.884,12.884,0,0,0,7.8,3.924.463.463,0,0,0,.463-.256l1.256-2.666a.466.466,0,0,0-.169-.6L11.69,8.362a.466.466,0,0,0-.576.065L10.071,9.47a.463.463,0,0,1-.387.133A5.45,5.45,0,0,1,6.589,7.958Z" transform="translate(-0.997 -0.046)" fill="#fff"/>
      <path id="Shape-2" data-name="Shape" d="M32.424,14.889a.466.466,0,0,1-.466-.466,3.5,3.5,0,0,0-3.492-3.492.466.466,0,1,1,0-.931,4.429,4.429,0,0,1,4.424,4.424A.466.466,0,0,1,32.424,14.889Z" transform="translate(-21.713 -7.672)" fill="#fff"/>
      <path id="Shape-3" data-name="Shape" d="M34.752,7.218a.466.466,0,0,1-.466-.466A5.827,5.827,0,0,0,28.466.931a.466.466,0,1,1,0-.931,6.759,6.759,0,0,1,6.752,6.752.466.466,0,0,1-.466.466Z" transform="translate(-21.713)" fill="#fff"/>
    </g>
  </g>
</svg>
