<svg xmlns="http://www.w3.org/2000/svg" width="25.055" height="25.055" viewBox="0 0 25.055 25.055">
  <path id="Path_123" data-name="Path 123" d="M-942.7,654.527A12.52,12.52,0,0,0-955.223,642a12.52,12.52,0,0,0-12.527,12.527,12.52,12.52,0,0,0,12.527,12.527h.22V657.3h-2.691V654.16H-955v-2.3a3.771,3.771,0,0,1,4.025-4.135,19.57,19.57,0,0,1,2.41.122v2.789h-1.639c-1.3,0-1.554.624-1.554,1.529v1.994h3.107l-.4,3.132h-2.7v9.273a12.51,12.51,0,0,0,9.065-12.038Z" transform="translate(967.75 -642)" fill="#5b5360"/>
</svg>
