<svg xmlns="http://www.w3.org/2000/svg" width="26" height="26" viewBox="0 0 26 26">
  <g id="Group_4600" data-name="Group 4600" transform="translate(-400 -2184)">
    <circle id="Ellipse_52" data-name="Ellipse 52" cx="13" cy="13" r="13" transform="translate(400 2184)" fill="#5b5360"/>
    <path id="fi-rr-heart" d="M9.138,1.917A3.343,3.343,0,0,0,6.265,3.641,3.343,3.343,0,0,0,3.392,1.917,3.551,3.551,0,0,0,0,5.6c0,2.375,2.5,4.968,4.6,6.727a2.6,2.6,0,0,0,3.343,0c2.1-1.759,4.6-4.352,4.6-6.727A3.551,3.551,0,0,0,9.138,1.917Zm-1.872,9.61a1.553,1.553,0,0,1-2,0C2.581,9.275,1.042,7.115,1.042,5.6a2.507,2.507,0,0,1,2.35-2.638A2.507,2.507,0,0,1,5.743,5.6a.522.522,0,1,0,1.045,0,2.507,2.507,0,0,1,2.35-2.638A2.507,2.507,0,0,1,11.488,5.6c0,1.516-1.539,3.676-4.223,5.926Z" transform="translate(406.735 2190.584)" fill="#e3e3e3"/>
  </g>
</svg>
