<svg xmlns="http://www.w3.org/2000/svg" width="20.594" height="18.095" viewBox="0 0 20.594 18.095">
  <path id="fi-rr-heart" d="M15.01,1.917a5.49,5.49,0,0,0-4.718,2.831A5.49,5.49,0,0,0,5.575,1.917,5.833,5.833,0,0,0,0,7.964c0,3.9,4.105,8.16,7.548,11.048a4.266,4.266,0,0,0,5.49,0c3.443-2.888,7.548-7.148,7.548-11.048A5.833,5.833,0,0,0,15.01,1.917ZM11.935,17.7a2.55,2.55,0,0,1-3.285,0C4.243,14,1.715,10.454,1.715,7.964a4.117,4.117,0,0,1,3.86-4.332,4.117,4.117,0,0,1,3.86,4.332.858.858,0,1,0,1.715,0,4.117,4.117,0,0,1,3.86-4.332,4.117,4.117,0,0,1,3.86,4.332c0,2.49-2.528,6.038-6.935,9.732Z" transform="translate(0.005 -1.917)" fill="#5b5360"/>
</svg>
