<svg id="Group_167" data-name="Group 167" xmlns="http://www.w3.org/2000/svg" width="25.055" height="25.055" viewBox="0 0 25.055 25.055">
  <path id="Path_124" data-name="Path 124" d="M-1496.2,851.4a2.4,2.4,0,0,1-2.4,2.4,2.4,2.4,0,0,1-2.4-2.4,2.4,2.4,0,0,1,2.4-2.4,2.4,2.4,0,0,1,2.4,2.4Z" transform="translate(1511.13 -838.87)" fill="#5b5360"/>
  <path id="Path_125" data-name="Path 125" d="M-1561,779.152a2.127,2.127,0,0,0-.538-.82,2.125,2.125,0,0,0-.82-.538,4.085,4.085,0,0,0-1.333-.257c-.758-.024-.991-.037-2.912-.037s-2.153.012-2.912.037a4.086,4.086,0,0,0-1.333.257,2.126,2.126,0,0,0-.82.538,2.126,2.126,0,0,0-.538.82,4.086,4.086,0,0,0-.257,1.333c-.024.758-.037.991-.037,2.912s.012,2.153.037,2.912a4.086,4.086,0,0,0,.257,1.333,2.126,2.126,0,0,0,.538.82,2.126,2.126,0,0,0,.82.538,4.087,4.087,0,0,0,1.333.257c.759.024.991.037,2.912.037s2.153-.012,2.912-.037a4.085,4.085,0,0,0,1.333-.257,2.324,2.324,0,0,0,1.358-1.358,4.086,4.086,0,0,0,.257-1.333c.024-.758.037-.991.037-2.912s-.012-2.153-.037-2.912a4.086,4.086,0,0,0-.257-1.333Zm-5.6,7.94a3.691,3.691,0,0,1-3.695-3.695,3.691,3.691,0,0,1,3.695-3.695,3.691,3.691,0,0,1,3.695,3.695,3.691,3.691,0,0,1-3.695,3.695Zm3.841-6.667a.872.872,0,0,1-.869-.869.862.862,0,0,1,.869-.856.851.851,0,0,1,.856.856.862.862,0,0,1-.856.869Z" transform="translate(1579.131 -770.869)" fill="#5b5360"/>
  <path id="Path_126" data-name="Path 126" d="M-1695.473,642A12.536,12.536,0,0,0-1708,654.527a12.536,12.536,0,0,0,12.527,12.527,12.536,12.536,0,0,0,12.527-12.527A12.536,12.536,0,0,0-1695.473,642Zm7.145,15.488a4.877,4.877,0,0,1-.33,1.749,3.641,3.641,0,0,1-2.1,2.1,4.88,4.88,0,0,1-1.749.33c-.759.037-1,.049-2.961.049s-2.2-.012-2.96-.049a4.88,4.88,0,0,1-1.75-.33,3.534,3.534,0,0,1-1.272-.832,3.533,3.533,0,0,1-.832-1.272,4.877,4.877,0,0,1-.33-1.749c-.037-.758-.049-1-.049-2.961s.012-2.2.049-2.961a4.876,4.876,0,0,1,.33-1.749,3.533,3.533,0,0,1,.832-1.272,3.534,3.534,0,0,1,1.272-.832,4.879,4.879,0,0,1,1.75-.33c.758-.037,1-.049,2.96-.049s2.2.012,2.961.049a4.879,4.879,0,0,1,1.749.33,3.537,3.537,0,0,1,1.272.832,3.535,3.535,0,0,1,.832,1.272,4.876,4.876,0,0,1,.33,1.749c.037.758.049,1,.049,2.961s-.012,2.2-.049,2.961Z" transform="translate(1708 -642)" fill="#5b5360"/>
</svg>
