<svg id="fi-rr-shopping-cart" xmlns="http://www.w3.org/2000/svg" width="17.087" height="17.517" viewBox="0 0 17.087 17.517">
  <path id="Path_1" data-name="Path 1" d="M16.577,2.995A2.179,2.179,0,0,0,14.9,2.2H3.1l-.031-.258A2.195,2.195,0,0,0,.892,0H.73a.735.735,0,0,0,0,1.469H.892a.732.732,0,0,1,.725.649l1,8.595a3.658,3.658,0,0,0,3.625,3.245h7.622a.735.735,0,0,0,0-1.469H6.245a2.191,2.191,0,0,1-2.058-1.469h8.7A3.656,3.656,0,0,0,16.479,8l.573-3.2a2.21,2.21,0,0,0-.474-1.8Zm-.958,1.543-.574,3.2A2.194,2.194,0,0,1,12.887,9.55H3.955L3.268,3.673H14.9a.728.728,0,0,1,.563.262A.738.738,0,0,1,15.619,4.538Z" fill="#5b5360"/>
  <circle id="Ellipse_1" data-name="Ellipse 1" cx="1.22" cy="1.22" r="1.22" transform="translate(3.924 15.076)" fill="#5b5360"/>
  <circle id="Ellipse_2" data-name="Ellipse 2" cx="1.22" cy="1.22" r="1.22" transform="translate(11.462 15.076)" fill="#5b5360"/>
</svg>
