<svg xmlns="http://www.w3.org/2000/svg" width="13.133" height="17.511" viewBox="0 0 13.133 17.511">
  <g id="Group_4592" data-name="Group 4592" transform="translate(-1117.867 -52.489)">
    <path id="Path_2" data-name="Path 2" d="M10.378,8.756A4.378,4.378,0,1,0,6,4.378a4.378,4.378,0,0,0,4.378,4.378Zm0-7.3A2.919,2.919,0,1,1,7.459,4.378,2.919,2.919,0,0,1,10.378,1.459Z" transform="translate(1114.055 52.489)" fill="#5b5360"/>
    <path id="Path_3" data-name="Path 3" d="M9.567,14A6.574,6.574,0,0,0,3,20.567a.73.73,0,1,0,1.459,0,5.107,5.107,0,1,1,10.215,0,.73.73,0,1,0,1.459,0A6.574,6.574,0,0,0,9.567,14Z" transform="translate(1114.867 48.704)" fill="#5b5360"/>
  </g>
</svg>
