<svg id="Group_166" data-name="Group 166" xmlns="http://www.w3.org/2000/svg" width="25.055" height="25.055" viewBox="0 0 25.055 25.055">
  <path id="Path_121" data-name="Path 121" d="M-3.5,854.7l4.086-2.349L-3.5,850v4.7Z" transform="translate(14.461 -839.822)" fill="#5b5360"/>
  <path id="Path_122" data-name="Path 122" d="M-214.973,642A12.536,12.536,0,0,0-227.5,654.527a12.536,12.536,0,0,0,12.527,12.527,12.536,12.536,0,0,0,12.527-12.527A12.536,12.536,0,0,0-214.973,642Zm7.83,12.54a20.2,20.2,0,0,1-.33,3.768,1.934,1.934,0,0,1-1.37,1.382,48.307,48.307,0,0,1-6.129.318,46.624,46.624,0,0,1-6.129-.33,1.971,1.971,0,0,1-1.382-1.382,20.88,20.88,0,0,1-.318-3.768,20.953,20.953,0,0,1,.318-3.768,2.032,2.032,0,0,1,1.382-1.395,48.307,48.307,0,0,1,6.129-.318,46.529,46.529,0,0,1,6.129.33,1.933,1.933,0,0,1,1.37,1.382,19.25,19.25,0,0,1,.33,3.78Z" transform="translate(227.5 -642)" fill="#5b5360"/>
</svg>
